<svg width="3302" height="3301" xmlns="http://www.w3.org/2000/svg" xmlns:xlink="http://www.w3.org/1999/xlink" xml:space="preserve" overflow="hidden"><g transform="translate(-549 413)"><path d="M2559.08 1310.51 2733.87 1310.51C2749.33 1310.51 2765.41 1311.94 2782.11 1314.81 2798.8 1317.68 2814.09 1322.86 2827.96 1330.35 2841.83 1337.84 2853.32 1348.02 2862.42 1360.9 2871.52 1373.77 2876.08 1390.17 2876.08 1410.08L2871.52 1437.94 3313.39 1437.94 3313.74 1436.75C3315.91 1416.9 3287.01 1417.27 3263.27 1423.33 3277.59 1408.18 3296.28 1400.11 3313.45 1398.82 3336.33 1397.09 3356.48 1407.4 3359.87 1429L3359.46 1437.94 3456 1437.94 3390.99 1486.6 2834.72 1486.6 2833.31 1487.62C2824.16 1493.1 2814.99 1496.4 2805.81 1497.51 2809.74 1497.87 2814.49 1500.72 2820.07 1506.04 2825.64 1511.36 2832.79 1518.39 2841.51 1527.14L2892.94 1587 2775.62 1587 2715.79 1515.73 2594.22 1515.73 2594.22 1587 2502.93 1587 2502.93 1441.58 2740.69 1441.58C2752.78 1441.58 2762.74 1439.22 2770.59 1434.49 2778.45 1429.77 2782.37 1423.38 2782.37 1415.35 2782.37 1406.49 2778.83 1399.77 2771.75 1395.19 2764.67 1390.62 2754.32 1388.33 2740.69 1388.33L2502.93 1388.33ZM2363.74 1310.51 2455.03 1310.51 2455.03 1587 2363.74 1587ZM1568.53 1310.51 1659.83 1310.51 1659.83 1509.99 1867.81 1509.99 1811.92 1587 1568.53 1587 1568.53 1484.65 1009.01 1484.65 944 1435.99 1040.54 1435.99 1040.13 1427.05C1043.52 1405.46 1063.67 1395.15 1086.55 1396.87 1103.72 1398.17 1122.41 1406.23 1136.73 1421.39 1112.99 1415.32 1084.09 1414.96 1086.26 1434.8L1086.61 1435.99 1568.53 1435.99ZM2105.22 1306C2118.66 1306 2129.89 1309.08 2138.9 1315.23 2147.91 1321.39 2155.46 1328.89 2161.54 1337.75L2330.13 1587 2009.58 1587 2061.66 1509.99 2131.31 1509.99C2139.34 1509.99 2147.65 1509.99 2156.23 1509.99 2164.8 1509.99 2171.06 1510.13 2175 1510.4 2171.7 1509.88 2167.52 1505.85 2162.45 1498.31 2157.38 1490.76 2153.03 1484.42 2149.39 1479.29L2103.53 1408.49 1979.64 1587 1875.08 1587 2047.32 1342C2053.61 1331.13 2061.33 1322.42 2070.46 1315.85 2079.59 1309.28 2091.18 1306 2105.22 1306Z" fill="#0369C6" fill-rule="evenodd"/><path d="M3226.47 893.413 3511.33 893.413 3444.69 986.914 3218.69 986.914C3208 986.914 3200.44 988.175 3196.02 990.697 3191.59 993.219 3189.38 997.702 3189.38 1004.15 3189.38 1010.98 3191.59 1015.72 3196.01 1018.37 3200.43 1021.02 3207.99 1022.35 3218.69 1022.35L3394.12 1022.35C3434.75 1022.35 3465.89 1030.05 3487.53 1045.44 3509.18 1060.84 3520 1084.04 3520 1115.04 3520 1132.01 3517.3 1147.44 3511.89 1161.32 3506.48 1175.21 3497.84 1186.91 3485.96 1196.43 3474.09 1205.94 3459.15 1213.18 3441.16 1218.14 3423.17 1223.11 3401.74 1225.59 3376.88 1225.59L3071.73 1225.59 3138.15 1133.07 3384.59 1133.07C3395.39 1133.07 3402.97 1131.59 3407.34 1128.63 3411.7 1125.68 3413.89 1120.76 3413.89 1113.89 3413.89 1107.34 3411.73 1102.67 3407.4 1099.87 3403.08 1097.07 3395.47 1095.67 3384.58 1095.67L3209.16 1095.67C3187.64 1095.67 3169.1 1093.35 3153.54 1088.72 3137.98 1084.08 3124.94 1077.51 3114.42 1069.02 3103.89 1060.53 3096.07 1050.22 3090.95 1038.09 3085.83 1025.97 3083.27 1012.66 3083.27 998.155 3083.27 982.49 3086.05 968.169 3091.61 955.192 3097.17 942.215 3105.75 931.177 3117.37 922.079 3128.99 912.98 3143.88 905.927 3162.05 900.922 3180.21 895.916 3201.69 893.413 3226.47 893.413ZM2959.89 893.413 3058.87 893.413 3009.7 1032.19 2959.89 1032.19ZM2576.47 893.413 2950.23 893.413 2883.17 986.914 2770.47 986.914 2770.47 1225.59 2660.89 1225.59 2660.89 986.914 2509.57 986.914ZM1364.4 893.413 1473.98 893.413 1473.98 1225.59 1364.4 1225.59ZM1079.13 893.413 1314.88 893.413 1247.81 986.914 1079.13 986.914C1066.2 986.914 1054.21 988.753 1043.16 992.431 1032.12 996.109 1022.6 1001.26 1014.61 1007.89 1006.62 1014.51 1000.37 1022.25 995.86 1031.11 991.352 1039.96 989.098 1049.75 989.098 1060.47 989.098 1071.46 991.279 1081.39 995.641 1090.26 1000 1099.12 1006.2 1106.74 1014.23 1113.09 1022.26 1119.45 1031.73 1124.37 1042.64 1127.85 1053.55 1131.33 1065.71 1133.07 1079.13 1133.07L1196.14 1133.07 1196.14 1095.67 1029.4 1095.67 1091.61 1014.47 1305.24 1014.47 1305.24 1225.59 1079.13 1225.59C1050.49 1225.59 1024.04 1221.32 999.794 1212.79 975.546 1204.26 954.562 1192.45 936.844 1177.36 919.125 1162.28 905.222 1144.38 895.133 1123.68 885.044 1102.98 880 1080.46 880 1056.12 880 1031.95 885.032 1009.88 895.095 989.886 905.158 969.896 919.052 952.687 936.779 938.257 954.505 923.827 975.529 912.745 999.852 905.012 1024.17 897.28 1050.6 893.413 1079.13 893.413ZM2147.56 888C2154.13 888 2160.89 889.161 2167.84 891.483 2174.79 893.805 2182.99 899.754 2192.44 909.33L2380.04 1082.58 2380.04 893.413 2480.74 893.413 2480.74 1165.26C2480.74 1176.46 2479.09 1186.26 2475.78 1194.64 2472.47 1203.03 2468.08 1209.95 2462.63 1215.42 2457.17 1220.89 2450.76 1224.85 2443.41 1227.31 2436.06 1229.77 2428.56 1231 2420.93 1231 2413.9 1231 2406.96 1229.85 2400.1 1227.56 2393.24 1225.27 2385.38 1219.87 2376.54 1211.37L2188.45 1035.92 2188.45 1225.59 2088.23 1225.59 2088.23 952.766C2088.23 941.601 2089.85 931.919 2093.08 923.72 2096.32 915.521 2100.69 908.758 2106.18 903.432 2111.67 898.106 2118.04 894.202 2125.29 891.721 2132.54 889.24 2139.96 888 2147.56 888ZM1781.98 888C1798.11 888 1811.59 891.697 1822.41 899.092 1833.22 906.486 1842.28 915.502 1849.59 926.138L2051.95 1225.59 1667.18 1225.59 1729.7 1133.07 1813.3 1133.07C1822.94 1133.07 1832.91 1133.07 1843.2 1133.07 1853.5 1133.07 1861.01 1133.23 1865.74 1133.56 1861.78 1132.94 1856.76 1128.1 1850.68 1119.03 1844.59 1109.97 1839.37 1102.35 1835 1096.19L1779.96 1011.13 1631.25 1225.59 1505.74 1225.59 1712.49 931.252C1720.04 918.195 1729.3 907.723 1740.26 899.834 1751.22 891.945 1765.13 888 1781.98 888Z" fill="#AFD33F" fill-rule="evenodd"/><path d="M550 1237.5C550 325.954 1288.73-413 2200-413 3111.27-413 3850 325.954 3850 1237.5 3850 1240.06 3850 1242.62 3849.99 1245.17L3678.12 1244.37C3681.92 427.755 3023.22-237.323 2206.87-241.12 1390.53-244.917 725.675 414.005 721.88 1230.62 721.869 1232.91 721.864 1235.21 721.864 1237.5Z" fill="#AFD33F" fill-rule="evenodd"/><path d="M3850 1237.5C3850 2149.05 3111.27 2888 2200 2888 1288.73 2888 549.997 2149.05 549.997 1237.5 549.997 1234.94 550.002 1232.38 550.014 1229.83L721.88 1230.63C718.085 2047.24 1376.78 2712.32 2193.13 2716.12 3009.47 2719.92 3674.32 2061 3678.12 1244.38 3678.13 1242.09 3678.14 1239.79 3678.14 1237.5Z" fill="#0369C6" fill-rule="evenodd"/></g></svg>